<svg width="292" height="101" viewBox="0 0 292 101" fill="none" xmlns="http://www.w3.org/2000/svg">
<path fill-rule="evenodd" clip-rule="evenodd" d="M0.74789 66.2179C3.36899 74.5796 13.0811 83.1043 21.5763 84.2456C23.4485 84.5018 25.2505 84.3853 26.9355 83.8496C27.4035 83.7565 26.9589 85.6198 27.1227 86.272C30.9608 83.9195 33.8159 80.5422 41.1409 79.5873C41.609 79.564 40.6261 81.3342 40.9303 81.9863C49.4255 74.929 60.7524 84.3388 65.7137 78.7255C57.8036 90.0685 43.9024 96.4038 29.5566 93.8417C14.8831 91.1632 3.93065 79.9599 0.74789 66.2179Z" fill="#01539F"/>
<path fill-rule="evenodd" clip-rule="evenodd" d="M65.8776 78.3295C60.0035 93.3991 44.3003 102.716 27.9652 99.781C10.577 96.66 -1.31155 80.6819 0.116015 63.2132V63.1667C0.116015 63.2598 0.139418 63.353 0.139418 63.4462C0.209626 63.9586 0.303237 64.471 0.42025 64.9601C0.513861 65.3328 0.607472 65.7054 0.724485 66.0781C3.90725 79.8434 14.8597 91.0234 29.5098 93.6553C43.8556 96.2407 57.7802 89.8821 65.6669 78.5391C65.7605 78.4925 65.8307 78.3993 65.8776 78.3295Z" fill="#01539F"/>
<path fill-rule="evenodd" clip-rule="evenodd" d="M0.74789 66.1015C3.36899 74.4631 13.0811 82.9878 21.5763 84.1291C23.4485 84.3853 25.2505 84.2689 26.9355 83.7332C27.4035 83.64 26.9589 85.5033 27.1227 86.1555C30.9608 83.803 33.8159 80.4258 41.1409 79.4708C41.609 79.4475 40.6261 81.2177 40.9303 81.8699C49.4255 74.8125 60.7524 84.2223 65.7137 78.609C57.8036 89.952 43.9024 96.2873 29.5566 93.7253C14.8831 91.0467 3.93065 79.8435 0.74789 66.1015Z" fill="#01539F"/>
<path d="M68.2412 62.9338C64.1224 37.6392 34.0733 0 34.0733 0C34.0733 0 7.48786 33.3069 0.888302 58.3221C0.818094 58.555 0.771288 58.7879 0.70108 59.0208V59.0441C0.630872 59.3702 0.537261 59.6963 0.467053 60.0224C2.22225 58.6482 3.60301 57.5302 3.83704 57.1808C4.89016 55.5737 18.4637 42.6469 18.4637 42.6469C18.5573 43.9046 18.6041 44.0211 18.6509 44.3471L13.6662 51.125L18.9084 45.5583L20.2891 48.4698L19.6104 50.8688L20.8508 49.7974C20.8508 49.7974 21.5295 52.965 21.6231 53.4309C21.6933 53.7802 20.5466 55.8066 20.4763 56.2491C20.4061 56.6917 17.0596 61.3034 16.8957 61.5363C21.6465 55.6203 20.6168 57.0411 22.1145 54.5256L25.0867 56.8081C25.0867 57.2274 25.5547 58.4618 25.9058 59.4168C26.0696 59.8593 26.3504 60.2786 26.2568 60.4416C17.5978 75.651 26.6547 60.8842 27.1461 61.2801C28.0354 62.0022 29.2758 62.8872 29.2758 62.8872L30.7735 65.5192L34.869 69.7816L32.5521 64.7972L36.32 63.4928L48.2553 69.2226L36.2732 56.5752L31.4522 54.2461L25.8356 45.0925C26.7951 44.0444 28.4801 42.9497 28.8311 42.6702L31.382 39.3395C31.5458 39.2463 37.9347 29.9995 38.6836 29.2076C38.6602 29.6036 38.473 32.3753 38.3326 32.7712C38.6368 33.7495 39.0113 35.2634 39.0113 35.706C39.0113 35.9389 32.0139 46.2105 31.8969 46.3735C32.0139 46.3735 39.4091 37.2898 39.5963 37.4761C43.3408 41.296 42.4047 38.1982 39.3623 46.1406C39.3155 46.2571 42.5685 41.2028 42.6387 41.3425C42.9429 42.1345 43.9024 44.3006 44.7215 45.8611C45.0726 46.5366 40.9303 55.2942 41.0005 55.3641C41.0005 55.3641 45.6576 47.049 45.9853 47.0024C46.6873 46.8859 49.0276 47.3983 49.1212 47.4915C49.2616 47.6546 46.4065 47.9341 46.7342 48.493C47.6235 50.0536 50.1041 52.406 51.3913 53.6871C51.6721 53.9666 49.5425 61.3267 49.5893 61.3966C49.5893 61.3966 52.538 55.8066 52.7955 55.9464C55.7676 57.5768 61.0332 59.4634 61.3608 59.7895C61.7353 60.1854 58.0143 68.78 58.1781 68.8033C58.7865 68.8499 63.0692 59.6963 63.7479 60.1388C65.1989 61.1404 66.9307 62.9338 68.5455 64.5177C68.405 64.0285 68.3114 63.4695 68.2412 62.9338ZM33.8627 61.3966L28.5269 53.524C32.1309 57.6932 30.9139 55.8998 33.8627 61.3966ZM27.1461 53.4309C22.6762 47.0024 24.1974 49.4247 20.4529 42.7633C24.759 48.4931 23.2379 46.0707 27.1461 53.4309ZM43.9492 40.3643L40.8601 34.751L44.2535 39.4792L46.0789 40.2013L43.9492 40.3643ZM49.3787 45.931L48.3489 42.2742L55.3229 53.4774L49.3787 45.931Z" fill="#01539F"/>
<path d="M92.735 40.3199V50.9999H90.86V46.1999H85.97V50.9999H84.095V40.3199H85.97V44.5649H90.86V40.3199H92.735Z" fill="#01539F"/>
<path d="M103.56 40.3199V50.9999H101.685V41.9399H96.7952V50.9999H94.9202V40.3199H103.56Z" fill="#01539F"/>
<path d="M110.38 40.0649C111.89 40.0649 113.115 40.5849 114.055 41.6249C115.005 42.6549 115.48 43.9999 115.48 45.6599C115.48 47.3199 115.005 48.6699 114.055 49.7099C113.105 50.7399 111.87 51.2549 110.35 51.2549C108.82 51.2549 107.58 50.7399 106.63 49.7099C105.69 48.6799 105.22 47.3299 105.22 45.6599C105.22 44.0399 105.68 42.7049 106.6 41.6549C107.53 40.5949 108.79 40.0649 110.38 40.0649ZM110.35 41.6399C109.37 41.6399 108.585 42.0049 107.995 42.7349C107.405 43.4549 107.11 44.4199 107.11 45.6299C107.11 46.8699 107.4 47.8549 107.98 48.5849C108.57 49.3149 109.37 49.6799 110.38 49.6799C111.35 49.6799 112.125 49.3149 112.705 48.5849C113.295 47.8449 113.59 46.8649 113.59 45.6449C113.59 44.4249 113.295 43.4549 112.705 42.7349C112.125 42.0049 111.34 41.6399 110.35 41.6399Z" fill="#01539F"/>
<path d="M126.252 44.3849V45.9449L124.827 47.0249L126.252 48.1349V49.6799L123.927 47.8649V46.2149L126.252 44.3849ZM123.327 44.3849V45.9149L121.872 47.0099L123.327 48.1349V49.6949L120.972 47.8349V46.2149L123.327 44.3849Z" fill="#01539F"/>
<path d="M137.365 45.6599C137.365 47.3499 136.91 48.7049 136 49.7249C135.09 50.7449 133.88 51.2549 132.37 51.2549C131.13 51.2549 130.1 50.9099 129.28 50.2199C128.46 49.5199 127.96 48.5849 127.78 47.4149H129.67C130.01 48.9149 130.895 49.6649 132.325 49.6649C133.285 49.6649 134.025 49.3399 134.545 48.6899C135.065 48.0399 135.365 47.2249 135.445 46.2449H130.885V44.7299H135.4C135.26 43.8399 134.93 43.1099 134.41 42.5399C133.9 41.9599 133.2 41.6699 132.31 41.6699C131.66 41.6699 131.105 41.8349 130.645 42.1649C130.185 42.4949 129.875 42.9499 129.715 43.5299H127.84C128.05 42.4099 128.565 41.5549 129.385 40.9649C130.215 40.3749 131.18 40.0799 132.28 40.0799C133.33 40.0799 134.245 40.3399 135.025 40.8599C135.805 41.3699 136.39 42.0449 136.78 42.8849C137.17 43.7149 137.365 44.6399 137.365 45.6599Z" fill="#01539F"/>
<path d="M146.12 50.9999H144.05L141.62 47.5349L140.6 48.5999V50.9999H138.89V43.2599H140.6V46.6949L143.69 43.2599H145.775L142.76 46.3649L146.12 50.9999Z" fill="#01539F"/>
<path d="M150.356 43.0349C151.536 43.0349 152.476 43.4049 153.176 44.1449C153.876 44.8849 154.226 45.8799 154.226 47.1299C154.226 48.3899 153.876 49.3899 153.176 50.1299C152.486 50.8699 151.546 51.2399 150.356 51.2399C149.146 51.2399 148.186 50.8699 147.476 50.1299C146.766 49.3899 146.411 48.3899 146.411 47.1299C146.411 45.8799 146.766 44.8849 147.476 44.1449C148.196 43.4049 149.156 43.0349 150.356 43.0349ZM151.916 45.1199C151.536 44.6299 151.006 44.3849 150.326 44.3849C149.646 44.3849 149.111 44.6299 148.721 45.1199C148.331 45.6099 148.136 46.2799 148.136 47.1299C148.136 47.9999 148.331 48.6799 148.721 49.1699C149.111 49.6599 149.651 49.9049 150.341 49.9049C151.011 49.9049 151.536 49.6599 151.916 49.1699C152.306 48.6699 152.501 47.9849 152.501 47.1149C152.501 46.2649 152.306 45.5999 151.916 45.1199Z" fill="#01539F"/>
<path d="M162.137 50.9999H160.427V44.6099H158.057L157.952 47.9999C157.922 49.0099 157.702 49.7949 157.292 50.3549C156.892 50.9049 156.342 51.1799 155.642 51.1799C155.212 51.1799 154.862 51.1249 154.592 51.0149V49.6799C154.692 49.7299 154.897 49.7549 155.207 49.7549C155.887 49.7549 156.247 49.1149 156.287 47.8349L156.422 43.2599H162.137V50.9999Z" fill="#01539F"/>
<path d="M167.495 43.0349C168.675 43.0349 169.615 43.4049 170.315 44.1449C171.015 44.8849 171.365 45.8799 171.365 47.1299C171.365 48.3899 171.015 49.3899 170.315 50.1299C169.625 50.8699 168.685 51.2399 167.495 51.2399C166.285 51.2399 165.325 50.8699 164.615 50.1299C163.905 49.3899 163.55 48.3899 163.55 47.1299C163.55 45.8799 163.905 44.8849 164.615 44.1449C165.335 43.4049 166.295 43.0349 167.495 43.0349ZM169.055 45.1199C168.675 44.6299 168.145 44.3849 167.465 44.3849C166.785 44.3849 166.25 44.6299 165.86 45.1199C165.47 45.6099 165.275 46.2799 165.275 47.1299C165.275 47.9999 165.47 48.6799 165.86 49.1699C166.25 49.6599 166.79 49.9049 167.48 49.9049C168.15 49.9049 168.675 49.6599 169.055 49.1699C169.445 48.6699 169.64 47.9849 169.64 47.1149C169.64 46.2649 169.445 45.5999 169.055 45.1199Z" fill="#01539F"/>
<path d="M178.216 44.6099H174.511V50.9999H172.801V43.2599H178.216V44.6099Z" fill="#01539F"/>
<path d="M181.348 50.9999H179.188V43.2599H180.898V48.8999H180.943L183.838 43.2599H185.998V50.9999H184.288V45.3599H184.243L181.348 50.9999Z" fill="#01539F"/>
<path d="M192.406 47.7149C191.546 47.9849 190.706 48.1199 189.886 48.1199C189.106 48.1199 188.501 47.9249 188.071 47.5349C187.651 47.1349 187.441 46.5599 187.441 45.8099V43.2599H189.151V45.2099C189.151 46.1899 189.621 46.6799 190.561 46.6799C191.201 46.6799 191.816 46.5549 192.406 46.3049V43.2599H194.116V50.9999H192.406V47.7149Z" fill="#01539F"/>
<path d="M202.788 48.5849C202.598 49.4249 202.183 50.0799 201.543 50.5499C200.913 51.0199 200.158 51.2549 199.278 51.2549C198.108 51.2549 197.178 50.8799 196.488 50.1299C195.808 49.3699 195.468 48.3999 195.468 47.2199C195.468 46.0099 195.818 45.0099 196.518 44.2199C197.228 43.4299 198.128 43.0349 199.218 43.0349C200.348 43.0349 201.243 43.4249 201.903 44.2049C202.563 44.9749 202.893 46.0299 202.893 47.3699V47.5499H197.178C197.198 48.3299 197.393 48.9349 197.763 49.3649C198.133 49.7849 198.648 49.9949 199.308 49.9949C199.778 49.9949 200.158 49.8849 200.448 49.6649C200.748 49.4349 200.983 49.0749 201.153 48.5849H202.788ZM201.183 46.4099C201.133 45.7599 200.928 45.2499 200.568 44.8799C200.218 44.4999 199.763 44.3099 199.203 44.3099C198.643 44.3099 198.188 44.4899 197.838 44.8499C197.498 45.2099 197.288 45.7299 197.208 46.4099H201.183Z" fill="#01539F"/>
<path d="M211.213 48.0749C211.093 49.0249 210.713 49.7849 210.073 50.3549C209.433 50.9149 208.628 51.1949 207.658 51.1949C206.498 51.1949 205.573 50.8299 204.883 50.0999C204.193 49.3599 203.848 48.3949 203.848 47.2049C203.848 45.9249 204.193 44.9099 204.883 44.1599C205.583 43.3999 206.523 43.0199 207.703 43.0199C208.693 43.0199 209.488 43.2699 210.088 43.7699C210.698 44.2699 211.053 44.9649 211.153 45.8549H209.458C209.358 45.3649 209.158 44.9899 208.858 44.7299C208.558 44.4699 208.178 44.3399 207.718 44.3399C207.058 44.3399 206.538 44.5899 206.158 45.0899C205.778 45.5799 205.588 46.2549 205.588 47.1149C205.588 47.9749 205.768 48.6449 206.128 49.1249C206.498 49.6049 207.008 49.8449 207.658 49.8449C208.168 49.8449 208.583 49.6949 208.903 49.3949C209.233 49.0849 209.443 48.6449 209.533 48.0749H211.213Z" fill="#01539F"/>
<path d="M219.758 50.9999H217.688L215.258 47.5349L214.238 48.5999V50.9999H212.528V43.2599H214.238V46.6949L217.328 43.2599H219.413L216.398 46.3649L219.758 50.9999Z" fill="#01539F"/>
<path d="M222.745 50.9999H220.585V43.2599H222.295V48.8999H222.34L225.235 43.2599H227.395V50.9999H225.685V45.3599H225.64L222.745 50.9999Z" fill="#01539F"/>
<path d="M236.128 48.5849C235.938 49.4249 235.523 50.0799 234.883 50.5499C234.253 51.0199 233.498 51.2549 232.618 51.2549C231.448 51.2549 230.518 50.8799 229.828 50.1299C229.148 49.3699 228.808 48.3999 228.808 47.2199C228.808 46.0099 229.158 45.0099 229.858 44.2199C230.568 43.4299 231.468 43.0349 232.558 43.0349C233.688 43.0349 234.583 43.4249 235.243 44.2049C235.903 44.9749 236.233 46.0299 236.233 47.3699V47.5499H230.518C230.538 48.3299 230.733 48.9349 231.103 49.3649C231.473 49.7849 231.988 49.9949 232.648 49.9949C233.118 49.9949 233.498 49.8849 233.788 49.6649C234.088 49.4349 234.323 49.0749 234.493 48.5849H236.128ZM234.523 46.4099C234.473 45.7599 234.268 45.2499 233.908 44.8799C233.558 44.4999 233.103 44.3099 232.543 44.3099C231.983 44.3099 231.528 44.4899 231.178 44.8499C230.838 45.2099 230.628 45.7299 230.548 46.4099H234.523Z" fill="#01539F"/>
<path d="M86.06 70.9999H83.9V63.2599H85.61V68.8999H85.655L88.55 63.2599H90.71V70.9999H89V65.3599H88.955L86.06 70.9999Z" fill="#01539F"/>
<path d="M94.2233 70.9999H92.5133V63.2599H94.2233V66.2899H97.6133V63.2599H99.3233V70.9999H97.6133V67.6399H94.2233V70.9999Z" fill="#01539F"/>
<path d="M102.837 70.9999H101.127V63.2599H102.837V66.2899H106.227V63.2599H107.937V70.9999H106.227V67.6399H102.837V70.9999Z" fill="#01539F"/>
<path d="M113.325 63.0349C114.505 63.0349 115.445 63.4049 116.145 64.1449C116.845 64.8849 117.195 65.8799 117.195 67.1299C117.195 68.3899 116.845 69.3899 116.145 70.1299C115.455 70.8699 114.515 71.2399 113.325 71.2399C112.115 71.2399 111.155 70.8699 110.445 70.1299C109.735 69.3899 109.38 68.3899 109.38 67.1299C109.38 65.8799 109.735 64.8849 110.445 64.1449C111.165 63.4049 112.125 63.0349 113.325 63.0349ZM114.885 65.1199C114.505 64.6299 113.975 64.3849 113.295 64.3849C112.615 64.3849 112.08 64.6299 111.69 65.1199C111.3 65.6099 111.105 66.2799 111.105 67.1299C111.105 67.9999 111.3 68.6799 111.69 69.1699C112.08 69.6599 112.62 69.9049 113.31 69.9049C113.98 69.9049 114.505 69.6599 114.885 69.1699C115.275 68.6699 115.47 67.9849 115.47 67.1149C115.47 66.2649 115.275 65.5999 114.885 65.1199Z" fill="#01539F"/>
<path d="M125.546 68.8099C125.546 69.5099 125.296 70.0499 124.796 70.4299C124.306 70.8099 123.606 70.9999 122.696 70.9999H118.631V63.2599H122.906C123.626 63.2599 124.186 63.4249 124.586 63.7549C124.996 64.0849 125.201 64.5499 125.201 65.1499C125.201 65.5599 125.111 65.8899 124.931 66.1399C124.751 66.3899 124.471 66.6049 124.091 66.7849V66.8149C125.061 67.0649 125.546 67.7299 125.546 68.8099ZM122.696 67.5799H120.341V69.7099H122.696C123.466 69.7099 123.851 69.3599 123.851 68.6599C123.851 68.3199 123.751 68.0549 123.551 67.8649C123.351 67.6749 123.066 67.5799 122.696 67.5799ZM122.471 64.5499H120.341V66.3349H122.516C123.176 66.3349 123.506 66.0249 123.506 65.4049C123.506 64.8349 123.161 64.5499 122.471 64.5499Z" fill="#01539F"/>
<path d="M126.891 65.6449C127.071 63.8949 128.201 63.0199 130.281 63.0199C131.251 63.0199 132.021 63.2099 132.591 63.5899C133.171 63.9699 133.461 64.5599 133.461 65.3599V69.2899C133.461 69.5099 133.486 69.6599 133.536 69.7399C133.596 69.8199 133.706 69.8599 133.866 69.8599C133.986 69.8599 134.116 69.8499 134.256 69.8299V71.0299C133.816 71.1399 133.446 71.1949 133.146 71.1949C132.416 71.1949 131.996 70.8849 131.886 70.2649C131.236 70.8849 130.331 71.1949 129.171 71.1949C128.371 71.1949 127.736 70.9899 127.266 70.5799C126.796 70.1599 126.561 69.5949 126.561 68.8849C126.561 68.6649 126.586 68.4599 126.636 68.2699C126.686 68.0799 126.741 67.9149 126.801 67.7749C126.871 67.6349 126.976 67.5049 127.116 67.3849C127.266 67.2649 127.386 67.1649 127.476 67.0849C127.576 67.0049 127.731 66.9299 127.941 66.8599C128.161 66.7899 128.321 66.7399 128.421 66.7099C128.531 66.6699 128.716 66.6299 128.976 66.5899C129.236 66.5499 129.406 66.5249 129.486 66.5149C129.576 66.4949 129.756 66.4699 130.026 66.4399C130.636 66.3599 131.051 66.2949 131.271 66.2449C131.491 66.1849 131.641 66.0999 131.721 65.9899C131.791 65.9099 131.826 65.7249 131.826 65.4349C131.826 64.6549 131.296 64.2649 130.236 64.2649C129.676 64.2649 129.266 64.3699 129.006 64.5799C128.746 64.7899 128.581 65.1449 128.511 65.6449H126.891ZM131.811 67.1149C131.681 67.1849 131.531 67.2499 131.361 67.3099C131.191 67.3599 131.051 67.3949 130.941 67.4149C130.841 67.4249 130.676 67.4449 130.446 67.4749C130.226 67.5049 130.081 67.5249 130.011 67.5349C129.801 67.5649 129.636 67.5949 129.516 67.6249C129.396 67.6449 129.246 67.6849 129.066 67.7449C128.896 67.8049 128.761 67.8799 128.661 67.9699C128.571 68.0499 128.491 68.1649 128.421 68.3149C128.351 68.4549 128.316 68.6249 128.316 68.8249C128.316 69.1949 128.436 69.4799 128.676 69.6799C128.926 69.8799 129.271 69.9799 129.711 69.9799C130.471 69.9799 131.056 69.7749 131.466 69.3649C131.696 69.1349 131.811 68.6899 131.811 68.0299V67.1149Z" fill="#01539F"/>
<path d="M142.111 69.6499H143.146V73.4599H141.496V70.9999H135.301V63.2599H137.011V69.6499H140.401V63.2599H142.111V69.6499Z" fill="#01539F"/>
<path d="M146.309 70.9999H144.149V63.2599H145.859V68.8999H145.904L148.799 63.2599H150.959V70.9999H149.249V65.3599H149.204L146.309 70.9999Z" fill="#01539F"/>
<path d="M156.347 63.0349C157.527 63.0349 158.467 63.4049 159.167 64.1449C159.867 64.8849 160.217 65.8799 160.217 67.1299C160.217 68.3899 159.867 69.3899 159.167 70.1299C158.477 70.8699 157.537 71.2399 156.347 71.2399C155.137 71.2399 154.177 70.8699 153.467 70.1299C152.757 69.3899 152.402 68.3899 152.402 67.1299C152.402 65.8799 152.757 64.8849 153.467 64.1449C154.187 63.4049 155.147 63.0349 156.347 63.0349ZM157.907 65.1199C157.527 64.6299 156.997 64.3849 156.317 64.3849C155.637 64.3849 155.102 64.6299 154.712 65.1199C154.322 65.6099 154.127 66.2799 154.127 67.1299C154.127 67.9999 154.322 68.6799 154.712 69.1699C155.102 69.6599 155.642 69.9049 156.332 69.9049C157.002 69.9049 157.527 69.6599 157.907 69.1699C158.297 68.6699 158.492 67.9849 158.492 67.1149C158.492 66.2649 158.297 65.5999 157.907 65.1199Z" fill="#01539F"/>
<path d="M163.364 70.9999H161.654V63.2599H163.364V66.2899H166.754V63.2599H168.464V70.9999H166.754V67.6399H163.364V70.9999Z" fill="#01539F"/>
<path d="M171.977 70.9999H170.267V63.2599H171.977V66.2899H175.367V63.2599H177.077V70.9999H175.367V67.6399H171.977V70.9999Z" fill="#01539F"/>
<path d="M186.275 63.2599H187.985V70.9999H186.275V63.2599ZM184.52 66.7249C184.98 67.1549 185.21 67.7549 185.21 68.5249C185.21 69.2949 184.98 69.8999 184.52 70.3399C184.06 70.7799 183.415 70.9999 182.585 70.9999H178.805V63.2599H180.516V66.0649H182.57C183.41 66.0649 184.06 66.2849 184.52 66.7249ZM183.501 68.5549C183.501 68.2049 183.4 67.9249 183.201 67.7149C183.001 67.5049 182.72 67.3999 182.36 67.3999H180.516V69.6649H182.391C182.76 69.6649 183.036 69.5649 183.215 69.3649C183.406 69.1549 183.501 68.8849 183.501 68.5549Z" fill="#01539F"/>
<path d="M196.636 68.5849C196.446 69.4249 196.031 70.0799 195.391 70.5499C194.761 71.0199 194.006 71.2549 193.126 71.2549C191.956 71.2549 191.026 70.8799 190.336 70.1299C189.656 69.3699 189.316 68.3999 189.316 67.2199C189.316 66.0099 189.666 65.0099 190.366 64.2199C191.076 63.4299 191.976 63.0349 193.066 63.0349C194.196 63.0349 195.091 63.4249 195.751 64.2049C196.411 64.9749 196.741 66.0299 196.741 67.3699V67.5499H191.026C191.046 68.3299 191.241 68.9349 191.611 69.3649C191.981 69.7849 192.496 69.9949 193.156 69.9949C193.626 69.9949 194.006 69.8849 194.296 69.6649C194.596 69.4349 194.831 69.0749 195.001 68.5849H196.636ZM195.031 66.4099C194.981 65.7599 194.776 65.2499 194.416 64.8799C194.066 64.4999 193.611 64.3099 193.051 64.3099C192.491 64.3099 192.036 64.4899 191.686 64.8499C191.346 65.2099 191.136 65.7299 191.056 66.4099H195.031Z" fill="#01539F"/>
<path d="M203.85 63.2599V64.2949C204.37 63.4549 205.21 63.0349 206.37 63.0349C207.44 63.0349 208.295 63.4099 208.935 64.1599C209.575 64.9099 209.895 65.9099 209.895 67.1599C209.895 68.3799 209.58 69.3599 208.95 70.0999C208.33 70.8299 207.5 71.1949 206.46 71.1949C205.36 71.1949 204.52 70.7899 203.94 69.9799V73.8649H202.245V63.2599H203.85ZM206.025 64.4149C205.355 64.4149 204.83 64.6549 204.45 65.1349C204.07 65.6149 203.88 66.2799 203.88 67.1299C203.88 67.9699 204.07 68.6299 204.45 69.1099C204.84 69.5899 205.375 69.8299 206.055 69.8299C206.705 69.8299 207.22 69.5899 207.6 69.1099C207.98 68.6299 208.17 67.9799 208.17 67.1599C208.17 66.3199 207.975 65.6549 207.585 65.1649C207.205 64.6649 206.685 64.4149 206.025 64.4149Z" fill="#01539F"/>
<path d="M211.31 65.6449C211.49 63.8949 212.62 63.0199 214.7 63.0199C215.67 63.0199 216.44 63.2099 217.01 63.5899C217.59 63.9699 217.88 64.5599 217.88 65.3599V69.2899C217.88 69.5099 217.905 69.6599 217.955 69.7399C218.015 69.8199 218.125 69.8599 218.285 69.8599C218.405 69.8599 218.535 69.8499 218.675 69.8299V71.0299C218.235 71.1399 217.865 71.1949 217.565 71.1949C216.835 71.1949 216.415 70.8849 216.305 70.2649C215.655 70.8849 214.75 71.1949 213.59 71.1949C212.79 71.1949 212.155 70.9899 211.685 70.5799C211.215 70.1599 210.98 69.5949 210.98 68.8849C210.98 68.6649 211.005 68.4599 211.055 68.2699C211.105 68.0799 211.16 67.9149 211.22 67.7749C211.29 67.6349 211.395 67.5049 211.535 67.3849C211.685 67.2649 211.805 67.1649 211.895 67.0849C211.995 67.0049 212.15 66.9299 212.36 66.8599C212.58 66.7899 212.74 66.7399 212.84 66.7099C212.95 66.6699 213.135 66.6299 213.395 66.5899C213.655 66.5499 213.825 66.5249 213.905 66.5149C213.995 66.4949 214.175 66.4699 214.445 66.4399C215.055 66.3599 215.47 66.2949 215.69 66.2449C215.91 66.1849 216.06 66.0999 216.14 65.9899C216.21 65.9099 216.245 65.7249 216.245 65.4349C216.245 64.6549 215.715 64.2649 214.655 64.2649C214.095 64.2649 213.685 64.3699 213.425 64.5799C213.165 64.7899 213 65.1449 212.93 65.6449H211.31ZM216.23 67.1149C216.1 67.1849 215.95 67.2499 215.78 67.3099C215.61 67.3599 215.47 67.3949 215.36 67.4149C215.26 67.4249 215.095 67.4449 214.865 67.4749C214.645 67.5049 214.5 67.5249 214.43 67.5349C214.22 67.5649 214.055 67.5949 213.935 67.6249C213.815 67.6449 213.665 67.6849 213.485 67.7449C213.315 67.8049 213.18 67.8799 213.08 67.9699C212.99 68.0499 212.91 68.1649 212.84 68.3149C212.77 68.4549 212.735 68.6249 212.735 68.8249C212.735 69.1949 212.855 69.4799 213.095 69.6799C213.345 69.8799 213.69 69.9799 214.13 69.9799C214.89 69.9799 215.475 69.7749 215.885 69.3649C216.115 69.1349 216.23 68.6899 216.23 68.0299V67.1149Z" fill="#01539F"/>
<path d="M226.05 68.7049C226.05 69.4949 225.72 70.1099 225.06 70.5499C224.41 70.9899 223.64 71.2099 222.75 71.2099C221.65 71.2099 220.8 70.9799 220.2 70.5199C219.61 70.0499 219.295 69.4049 219.255 68.5849H220.98C221.1 69.4549 221.685 69.8899 222.735 69.8899C223.225 69.8899 223.615 69.7899 223.905 69.5899C224.195 69.3799 224.34 69.0949 224.34 68.7349C224.34 67.9749 223.835 67.5949 222.825 67.5949H221.865V66.3349H222.555C223.585 66.3349 224.1 65.9949 224.1 65.3149C224.1 64.6649 223.63 64.3399 222.69 64.3399C221.87 64.3399 221.375 64.7249 221.205 65.4949H219.48C219.63 63.8549 220.755 63.0349 222.855 63.0349C223.725 63.0349 224.43 63.2049 224.97 63.5449C225.52 63.8849 225.795 64.4099 225.795 65.1199C225.795 65.5399 225.67 65.8999 225.42 66.1999C225.18 66.4999 224.89 66.6849 224.55 66.7549V66.7849C224.96 66.8649 225.31 67.0699 225.6 67.3999C225.9 67.7199 226.05 68.1549 226.05 68.7049Z" fill="#01539F"/>
<path d="M229.134 63.2599V64.2949C229.654 63.4549 230.494 63.0349 231.654 63.0349C232.724 63.0349 233.579 63.4099 234.219 64.1599C234.859 64.9099 235.179 65.9099 235.179 67.1599C235.179 68.3799 234.864 69.3599 234.234 70.0999C233.614 70.8299 232.784 71.1949 231.744 71.1949C230.644 71.1949 229.804 70.7899 229.224 69.9799V73.8649H227.529V63.2599H229.134ZM231.309 64.4149C230.639 64.4149 230.114 64.6549 229.734 65.1349C229.354 65.6149 229.164 66.2799 229.164 67.1299C229.164 67.9699 229.354 68.6299 229.734 69.1099C230.124 69.5899 230.659 69.8299 231.339 69.8299C231.989 69.8299 232.504 69.5899 232.884 69.1099C233.264 68.6299 233.454 67.9799 233.454 67.1599C233.454 66.3199 233.259 65.6549 232.869 65.1649C232.489 64.6649 231.969 64.4149 231.309 64.4149Z" fill="#01539F"/>
<path d="M236.594 65.6449C236.774 63.8949 237.904 63.0199 239.984 63.0199C240.954 63.0199 241.724 63.2099 242.294 63.5899C242.874 63.9699 243.164 64.5599 243.164 65.3599V69.2899C243.164 69.5099 243.189 69.6599 243.239 69.7399C243.299 69.8199 243.409 69.8599 243.569 69.8599C243.689 69.8599 243.819 69.8499 243.959 69.8299V71.0299C243.519 71.1399 243.149 71.1949 242.849 71.1949C242.119 71.1949 241.699 70.8849 241.589 70.2649C240.939 70.8849 240.034 71.1949 238.874 71.1949C238.074 71.1949 237.439 70.9899 236.969 70.5799C236.499 70.1599 236.264 69.5949 236.264 68.8849C236.264 68.6649 236.289 68.4599 236.339 68.2699C236.389 68.0799 236.444 67.9149 236.504 67.7749C236.574 67.6349 236.679 67.5049 236.819 67.3849C236.969 67.2649 237.089 67.1649 237.179 67.0849C237.279 67.0049 237.434 66.9299 237.644 66.8599C237.864 66.7899 238.024 66.7399 238.124 66.7099C238.234 66.6699 238.419 66.6299 238.679 66.5899C238.939 66.5499 239.109 66.5249 239.189 66.5149C239.279 66.4949 239.459 66.4699 239.729 66.4399C240.339 66.3599 240.754 66.2949 240.974 66.2449C241.194 66.1849 241.344 66.0999 241.424 65.9899C241.494 65.9099 241.529 65.7249 241.529 65.4349C241.529 64.6549 240.999 64.2649 239.939 64.2649C239.379 64.2649 238.969 64.3699 238.709 64.5799C238.449 64.7899 238.284 65.1449 238.214 65.6449H236.594ZM241.514 67.1149C241.384 67.1849 241.234 67.2499 241.064 67.3099C240.894 67.3599 240.754 67.3949 240.644 67.4149C240.544 67.4249 240.379 67.4449 240.149 67.4749C239.929 67.5049 239.784 67.5249 239.714 67.5349C239.504 67.5649 239.339 67.5949 239.219 67.6249C239.099 67.6449 238.949 67.6849 238.769 67.7449C238.599 67.8049 238.464 67.8799 238.364 67.9699C238.274 68.0499 238.194 68.1649 238.124 68.3149C238.054 68.4549 238.019 68.6249 238.019 68.8249C238.019 69.1949 238.139 69.4799 238.379 69.6799C238.629 69.8799 238.974 69.9799 239.414 69.9799C240.174 69.9799 240.759 69.7749 241.169 69.3649C241.399 69.1349 241.514 68.6899 241.514 68.0299V67.1149Z" fill="#01539F"/>
<path d="M252.444 67.2199C252.444 68.4299 252.104 69.3999 251.424 70.1299C250.744 70.8499 249.839 71.2099 248.709 71.2099C246.969 71.2099 245.799 70.4949 245.199 69.0649C244.939 68.4649 244.809 67.6499 244.809 66.6199C244.809 64.5899 245.134 63.0749 245.784 62.0749C246.124 61.5549 246.539 61.1699 247.029 60.9199C247.519 60.6599 248.139 60.5049 248.889 60.4549C248.979 60.4449 249.099 60.4349 249.249 60.4249C249.409 60.4149 249.519 60.4099 249.579 60.4099C249.649 60.3999 249.734 60.3899 249.834 60.3799C249.944 60.3599 250.019 60.3449 250.059 60.3349C250.109 60.3149 250.164 60.2949 250.224 60.2749C250.284 60.2449 250.329 60.2099 250.359 60.1699C250.389 60.1299 250.419 60.0849 250.449 60.0349H252.159C252.129 60.2149 252.084 60.3799 252.024 60.5299C251.974 60.6799 251.919 60.8099 251.859 60.9199C251.799 61.0299 251.709 61.1299 251.589 61.2199C251.479 61.3099 251.384 61.3849 251.304 61.4449C251.234 61.5049 251.119 61.5599 250.959 61.6099C250.799 61.6599 250.674 61.6999 250.584 61.7299C250.494 61.7499 250.349 61.7749 250.149 61.8049C249.949 61.8249 249.799 61.8399 249.699 61.8499C249.609 61.8599 249.444 61.8749 249.204 61.8949C248.974 61.9049 248.809 61.9149 248.709 61.9249C247.329 62.0349 246.424 63.0049 245.994 64.8349H246.039C246.369 64.3049 246.754 63.9099 247.194 63.6499C247.634 63.3799 248.214 63.2449 248.934 63.2449C249.934 63.2449 250.769 63.6099 251.439 64.3399C252.109 65.0699 252.444 66.0299 252.444 67.2199ZM250.734 67.2199C250.734 66.4299 250.539 65.7949 250.149 65.3149C249.769 64.8349 249.264 64.5949 248.634 64.5949C248.004 64.5949 247.494 64.8349 247.104 65.3149C246.724 65.7849 246.534 66.4199 246.534 67.2199C246.534 68.0199 246.724 68.6599 247.104 69.1399C247.494 69.6199 248.004 69.8599 248.634 69.8599C249.264 69.8599 249.769 69.6199 250.149 69.1399C250.539 68.6599 250.734 68.0199 250.734 67.2199Z" fill="#01539F"/>
<path d="M257.48 63.0349C258.66 63.0349 259.6 63.4049 260.3 64.1449C261 64.8849 261.35 65.8799 261.35 67.1299C261.35 68.3899 261 69.3899 260.3 70.1299C259.61 70.8699 258.67 71.2399 257.48 71.2399C256.27 71.2399 255.31 70.8699 254.6 70.1299C253.89 69.3899 253.535 68.3899 253.535 67.1299C253.535 65.8799 253.89 64.8849 254.6 64.1449C255.32 63.4049 256.28 63.0349 257.48 63.0349ZM259.04 65.1199C258.66 64.6299 258.13 64.3849 257.45 64.3849C256.77 64.3849 256.235 64.6299 255.845 65.1199C255.455 65.6099 255.26 66.2799 255.26 67.1299C255.26 67.9999 255.455 68.6799 255.845 69.1699C256.235 69.6599 256.775 69.9049 257.465 69.9049C258.135 69.9049 258.66 69.6599 259.04 69.1699C259.43 68.6699 259.625 67.9849 259.625 67.1149C259.625 66.2649 259.43 65.5999 259.04 65.1199Z" fill="#01539F"/>
<path d="M268.596 64.6099H266.046V70.9999H264.336V64.6099H261.786V63.2599H268.596V64.6099Z" fill="#01539F"/>
<path d="M276.799 70.9999H274.729L272.299 67.5349L271.279 68.5999V70.9999H269.569V63.2599H271.279V66.6949L274.369 63.2599H276.454L273.439 66.3649L276.799 70.9999Z" fill="#01539F"/>
<path d="M279.786 70.9999H277.626V63.2599H279.336V68.8999H279.381L282.276 63.2599H284.436V70.9999H282.726V65.3599H282.681L279.786 70.9999Z" fill="#01539F"/>
<path d="M289.179 64.3699L291.534 66.2449V67.8649L289.179 69.6799V68.1499L290.619 67.0699L289.179 65.9299V64.3699ZM286.254 64.3849L288.564 66.2149V67.8499L286.254 69.6499V68.1349L287.679 67.0549L286.254 65.9449V64.3849Z" fill="#01539F"/>
</svg>
